# xmcd
#
# Track frame offsets: 
#        200
#        21070
#        38165
#        53415
#        70810
#        88525
#        103022
#        120905
#        136270
#        156285
#        172252
#        198770
#        214597
#
# Disc length: 3099 seconds
#
# Revision: 1
# Processed by: cddbd v1.5PL3 Copyright (c) Steve Scherf et al.
# Submitted via: ExactAudioCopy v0.95a5
#
DISCID=a40c190d
DTITLE=Blues Busters - Busted !
DYEAR=2003
DGENRE=Blues
TTITLE0=Ain't Got No Job
TTITLE1=Let Your Loss Be Your Lesson
TTITLE2=Blues At Midnight
TTITLE3=Lovey Dovey
TTITLE4=A Woman Is Made To Be Loved
TTITLE5=Boogie Gettin' Down
TTITLE6=When My Woman Is Gone
TTITLE7=Midnight Roundup
TTITLE8=Blue's Boogie
TTITLE9=Your Mother Been Talking To You
TTITLE10=You Don't Love Me
TTITLE11=Campbell's Soup Song
TTITLE12=Jail House Rock
EXTD=
EXTT0=
EXTT1=
EXTT2=
EXTT3=
EXTT4=
EXTT5=
EXTT6=
EXTT7=
EXTT8=
EXTT9=
EXTT10=
EXTT11=
EXTT12=
PLAYORDER=
